<svg width="363" height="363" viewBox="516 330 363 363" fill="none" xmlns="http://www.w3.org/2000/svg">
<path d="M694.982 564.096C638.749 564.096 593 518.316 593 462.045C593 405.778 638.749 360 694.982 360C751.218 360 796.964 405.778 796.964 462.045C796.964 518.316 751.218 564.096 694.982 564.096ZM694.982 421.117C672.428 421.117 654.078 439.478 654.078 462.045C654.078 484.614 672.428 502.978 694.982 502.978C717.537 502.978 735.89 484.614 735.89 462.045C735.89 439.478 717.537 421.117 694.982 421.117Z" fill="#2D415E"/>
<path fill-rule="evenodd" clip-rule="evenodd" d="M694.983 360H802.541V421.116H694.983V360Z" fill="#2D415E"/>
<path d="M694.983 663.053C669.893 663.053 645.402 658.475 622.194 649.445L644.329 592.486C676.573 605.029 713.392 605.029 745.624 592.492L767.755 649.451C744.553 658.48 720.068 663.053 694.983 663.053Z" fill="#2D415E"/>
</svg>
