<svg width="1440" height="1024" viewBox="0 0 1440 1024" fill="none" xmlns="http://www.w3.org/2000/svg">
<rect width="1440" height="1024" fill="white"/>
<path d="M139.064 606.402C82.8302 606.402 37.0812 560.623 37.0812 504.352C37.0812 448.084 82.8302 402.307 139.064 402.307C195.299 402.307 241.045 448.084 241.045 504.352C241.045 560.623 195.299 606.402 139.064 606.402ZM139.064 463.424C116.509 463.424 98.1595 481.784 98.1595 504.352C98.1595 526.921 116.509 545.284 139.064 545.284C161.619 545.284 179.971 526.921 179.971 504.352C179.971 481.784 161.619 463.424 139.064 463.424Z" fill="#2D415E"/>
<path fill-rule="evenodd" clip-rule="evenodd" d="M139.064 402.307H246.622V463.423H139.064V402.307Z" fill="#2D415E"/>
<path d="M139.064 705.359C113.974 705.359 89.4834 700.781 66.275 691.751L88.4097 634.793C120.654 647.335 157.473 647.335 189.705 634.799L211.836 691.757C188.634 700.787 164.15 705.359 139.064 705.359Z" fill="#2D415E"/>
<path fill-rule="evenodd" clip-rule="evenodd" d="M278.922 406.807H339.998V602.333H278.922V406.807Z" fill="#2D415E"/>
<path d="M343.766 347.524C343.766 366.484 328.409 381.853 309.461 381.853C290.514 381.853 275.154 366.484 275.154 347.524C275.154 328.565 290.514 313.196 309.461 313.196C328.409 313.196 343.766 328.565 343.766 347.524Z" fill="#2D415E"/>
<path fill-rule="evenodd" clip-rule="evenodd" d="M377.042 408.041H483.339V458.046H377.042V408.041Z" fill="#2D415E"/>
<path d="M452.389 606.61C410.84 606.61 377.042 572.788 377.042 531.219V338.362H438.12V531.219C438.12 539.092 444.522 545.492 452.389 545.492C456.134 545.492 458.917 544.088 460.583 542.902L495.844 592.813C483.075 601.837 468.05 606.61 452.389 606.61Z" fill="#2D415E"/>
<path fill-rule="evenodd" clip-rule="evenodd" d="M377.042 408.041H438.12V458.046H377.042V408.041Z" fill="#2D415E"/>
<path fill-rule="evenodd" clip-rule="evenodd" d="M522.455 406.528H583.534V681.358H522.455V406.528Z" fill="#2D415E"/>
<path d="M624.441 606.402C568.204 606.402 522.455 560.623 522.455 504.352C522.455 448.084 568.204 402.307 624.441 402.307C680.677 402.307 726.428 448.084 726.428 504.352C726.428 560.623 680.677 606.402 624.441 606.402ZM624.441 463.424C601.884 463.424 583.534 481.784 583.534 504.352C583.534 526.921 601.884 545.284 624.441 545.284C646.996 545.284 665.348 526.921 665.348 504.352C665.348 481.784 646.996 463.424 624.441 463.424Z" fill="#2D415E"/>
<path d="M583.534 597.768V410.941C547.621 426.749 522.455 462.644 522.455 504.352C522.455 546.064 547.621 581.96 583.534 597.768Z" fill="#2D415E"/>
<path d="M857.498 463.424C860.791 463.424 864.06 463.833 867.209 464.639L882.355 405.431C874.27 403.359 865.898 402.307 857.498 402.307C802.403 402.307 757.581 447.157 757.581 502.283H818.66C818.66 480.857 836.083 463.424 857.498 463.424Z" fill="#2D415E"/>
<path fill-rule="evenodd" clip-rule="evenodd" d="M757.582 406.528H818.66V602.054H757.582V406.528Z" fill="#2D415E"/>
<path d="M818.66 502.283V410.169C782.802 425.363 757.582 460.932 757.582 502.283" fill="#2D415E"/>
<path fill-rule="evenodd" clip-rule="evenodd" d="M906.197 406.807H967.273V602.333H906.197V406.807Z" fill="#2D415E"/>
<path d="M971.041 347.524C971.041 366.484 955.684 381.853 936.736 381.853C917.788 381.853 902.429 366.484 902.429 347.524C902.429 328.565 917.788 313.196 936.736 313.196C955.684 313.196 971.041 328.565 971.041 347.524Z" fill="#2D415E"/>
<path d="M1099.71 606.402C1043.47 606.402 997.721 560.623 997.721 504.352C997.721 448.084 1043.47 402.307 1099.71 402.307C1133.42 402.307 1164.91 418.953 1183.95 446.834L1133.52 481.31C1125.87 470.111 1113.23 463.424 1099.71 463.424C1077.15 463.424 1058.8 481.784 1058.8 504.352C1058.8 526.921 1077.15 545.284 1099.71 545.284C1112.77 545.284 1124.75 539.257 1132.56 528.743L1181.56 565.229C1162.39 591.007 1131.79 606.402 1099.71 606.402Z" fill="#2D415E"/>
<path d="M1342.78 504.274V503.717C1342.72 499.216 1341.83 494.715 1340.28 490.382C1337.84 483.714 1333.9 478.047 1328.84 473.658C1318.01 464.157 1302.36 460.601 1287.86 465.88C1273.32 471.214 1263.6 483.937 1261.38 498.216V498.272C1260.43 504.881 1260.99 511.716 1263.43 518.386C1265.76 524.883 1269.71 530.441 1274.54 534.83C1285.42 544.553 1301.19 548.163 1315.85 542.777C1327.84 538.44 1337.01 528.888 1340.84 516.661L1399.14 535.053C1389.47 565.61 1366.71 589.279 1336.73 600.228C1290.08 617.228 1238.89 597.89 1214.29 556.774C1211.07 551.274 1208.29 545.441 1206.02 539.276C1203.74 532.996 1202.13 526.608 1201.08 520.219C1193.64 472.991 1220.4 425.431 1266.99 408.485C1313.46 391.539 1364.54 410.708 1389.2 451.711C1391.64 455.823 1393.92 460.212 1395.81 464.824C1396.47 466.38 1397.08 467.935 1397.64 469.491C1398.2 471.047 1398.69 472.547 1399.19 474.102C1400.63 478.77 1401.8 483.492 1402.52 488.215L1402.03 488.382L1342.34 510.164C1342.61 508.216 1342.78 506.273 1342.78 504.274Z" fill="#2D415E"/>
<path d="M1402.03 488.382V488.437L1342.33 510.164L1274.54 534.83L1214.29 556.774C1211.07 551.274 1208.29 545.441 1206.02 539.276C1203.74 532.996 1202.13 526.608 1201.08 520.219L1261.38 498.272V498.216L1328.84 473.658L1388.64 451.878C1391.36 455.934 1393.81 460.268 1395.81 464.824C1396.47 466.38 1397.08 467.936 1397.64 469.491C1398.2 471.047 1398.69 472.547 1399.19 474.102C1400.53 478.77 1401.53 483.548 1402.03 488.382Z" fill="#2D415E"/>
<path d="M1328.86 473.666C1333.89 478.046 1337.84 483.703 1340.26 490.386C1341.84 494.719 1342.7 499.195 1342.76 503.729L1342.75 503.729C1342.76 503.918 1342.76 504.107 1342.76 504.291C1342.76 506.279 1342.61 508.239 1342.34 510.147L1401.48 488.608L1402 488.42C1401.33 481.921 1399.88 475.591 1397.66 469.483C1395.36 463.165 1392.3 457.303 1388.64 451.898L1328.86 473.666Z" fill="#2D415E"/>
<path d="M1263.41 518.374C1260.98 511.694 1260.42 504.801 1261.4 498.237L1201.13 520.191C1202.13 526.585 1203.72 532.973 1206.01 539.282C1208.27 545.476 1211.11 551.291 1214.37 556.752L1274.54 534.841C1269.69 530.458 1265.78 524.906 1263.41 518.374Z" fill="#2D415E"/>
</svg>
